<?xml version="1.0" encoding="utf-8"?>
<!-- Generator: Adobe Illustrator 27.5.0, SVG Export Plug-In . SVG Version: 6.00 Build 0)  -->
<svg version="1.1" id="Layer_1" xmlns="http://www.w3.org/2000/svg" xmlns:xlink="http://www.w3.org/1999/xlink" x="0px" y="0px"
	 viewBox="0 0 200 200" style="enable-background:new 0 0 200 200;" xml:space="preserve">
<style type="text/css">
	.st0{fill:#FFFFFF;}
</style>
<g>
	<polyline class="st0" points="55,160.5 145,100.5 145,99.5 55,39.5 	"/>
	<path d="M55,168.5c-2.6,0-5.1-1.3-6.7-3.6c-2.5-3.7-1.5-8.6,2.2-11.1l80.8-53.8L50.5,46.2c-3.7-2.5-4.7-7.4-2.2-11.1
		s7.4-4.7,11.1-2.2l90,60c2.2,1.5,3.6,4,3.6,6.7v1c0,2.7-1.3,5.2-3.6,6.7l-90,60C58.1,168.1,56.5,168.5,55,168.5z"/>
</g>
</svg>
