<?xml version="1.0" encoding="utf-8"?>
<!-- Generator: Adobe Illustrator 27.5.0, SVG Export Plug-In . SVG Version: 6.00 Build 0)  -->
<svg version="1.1" id="Layer_1" xmlns="http://www.w3.org/2000/svg" xmlns:xlink="http://www.w3.org/1999/xlink" x="0px" y="0px"
	 viewBox="0 0 200 200" style="enable-background:new 0 0 200 200;" xml:space="preserve">
<style type="text/css">
	.st0{fill:#FFFFFF;}
</style>
<g>
	<polyline class="st0" points="145,39.5 55,99.5 55,100.5 145,160.5 	"/>
	<path d="M140.6,167.3l-90-60c-2.3-1.5-3.6-4-3.6-6.7v-1c0-2.7,1.4-5.2,3.6-6.7l90-60c3.7-2.5,8.6-1.5,11.1,2.2s1.5,8.6-2.2,11.1
		L68.7,100l80.8,53.8c3.7,2.5,4.7,7.4,2.2,11.1c-1.6,2.3-4.1,3.6-6.7,3.6C143.5,168.5,141.9,168.1,140.6,167.3z"/>
</g>
</svg>
