<?xml version="1.0" encoding="utf-8"?>
<!-- Generator: Adobe Illustrator 27.5.0, SVG Export Plug-In . SVG Version: 6.00 Build 0)  -->
<svg version="1.1" id="Layer_1" xmlns="http://www.w3.org/2000/svg" xmlns:xlink="http://www.w3.org/1999/xlink" x="0px" y="0px"
	 viewBox="0 0 300 300" style="enable-background:new 0 0 300 300;" xml:space="preserve">
<style type="text/css">
	.st0{fill:#FFFFFF;}
</style>
<path class="st0" d="M191.9,150l74.2,74.2c4.1,4.1,4.1,10.7,0,14.8L239,266.1c-4.1,4.1-10.7,4.1-14.8,0L150,191.9l-74.2,74.2
	c-4.1,4.1-10.7,4.1-14.8,0L33.9,239c-4.1-4.1-4.1-10.7,0-14.8l74.2-74.2L33.9,75.8c-4.1-4.1-4.1-10.7,0-14.8L61,33.9
	c4.1-4.1,10.7-4.1,14.8,0l74.2,74.2l74.2-74.2c4.1-4.1,10.7-4.1,14.8,0L266.1,61c4.1,4.1,4.1,10.7,0,14.8L191.9,150z"/>
</svg>
