<?xml version="1.0" encoding="utf-8"?>
<!-- Generator: Adobe Illustrator 27.5.0, SVG Export Plug-In . SVG Version: 6.00 Build 0)  -->
<svg version="1.1" id="Layer_1" xmlns="http://www.w3.org/2000/svg" xmlns:xlink="http://www.w3.org/1999/xlink" x="0px" y="0px"
	 viewBox="0 0 200 200" style="enable-background:new 0 0 200 200;" xml:space="preserve">
<style type="text/css">
	.st0{fill:#FFFFFF;}
</style>
<g>
	<path class="st0" d="M177.5,165.4c3.3,3.3,3.3,8.8,0,12.1c-1.7,1.7-3.9,2.5-6.1,2.5c-2.2,0-4.4-0.8-6.1-2.5L100,112.1l-65.4,65.4
		c-1.7,1.7-3.9,2.5-6.1,2.5c-2.2,0-4.4-0.8-6.1-2.5c-3.4-3.4-3.4-8.8,0-12.1L87.9,100L22.5,34.6c-3.4-3.3-3.4-8.8,0-12.1
		c3.3-3.3,8.8-3.3,12.1,0L100,87.9l65.3-65.4c3.4-3.3,8.8-3.3,12.1,0c3.3,3.4,3.3,8.8,0,12.1L112.1,100L177.5,165.4z"/>
</g>
</svg>
