<?xml version="1.0" encoding="utf-8"?>
<!-- Generator: Adobe Illustrator 27.5.0, SVG Export Plug-In . SVG Version: 6.00 Build 0)  -->
<svg version="1.1" id="Layer_1" xmlns="http://www.w3.org/2000/svg" xmlns:xlink="http://www.w3.org/1999/xlink" x="0px" y="0px"
	 viewBox="0 0 48 48" style="enable-background:new 0 0 48 48;" xml:space="preserve">
<style type="text/css">
	.st0{fill:#FFFFFF;}
	.st1{fill:none;}
</style>
<path class="st0" d="M30,37c-5,0-9.4-2.8-11.5-7h10.4c0.6,0,1.1-0.5,1.1-1.1v-1.8c0-0.6-0.5-1.1-1.1-1.1H17.2
	c-0.1-0.6-0.2-1.3-0.2-2s0.1-1.4,0.2-2h11.7c0.6,0,1.1-0.5,1.1-1.1v-1.8c0-0.6-0.5-1.1-1.1-1.1H18.5c2.2-4.2,6.5-7,11.5-7
	c2.9,0,5.6,1,7.7,2.6c0.4,0.3,1,0.2,1.4-0.1l2-2c0.5-0.5,0.4-1.2-0.1-1.6C38,7.4,34.2,6,30,6c-7.8,0-14.5,5-17,12h-6
	C6.5,18,6,18.5,6,19.1v1.8C6,21.5,6.5,22,7.1,22h5C12,22.7,12,23.3,12,24s0,1.3,0.1,2h-5C6.5,26,6,26.5,6,27.1v1.8
	C6,29.5,6.5,30,7.1,30h6c2.5,7,9.1,12,17,12c4.2,0,8-1.4,11-3.8c0.5-0.4,0.6-1.2,0.1-1.6l-2-2c-0.4-0.4-1-0.4-1.4-0.1
	C35.6,36,32.9,37,30,37z"/>
<path class="st1" d="M0,0h48v48H0V0z"/>
</svg>
