<?xml version="1.0" encoding="utf-8"?>
<!-- Generator: Adobe Illustrator 27.5.0, SVG Export Plug-In . SVG Version: 6.00 Build 0)  -->
<svg version="1.1" id="Layer_1" xmlns="http://www.w3.org/2000/svg" xmlns:xlink="http://www.w3.org/1999/xlink" x="0px" y="0px"
	 viewBox="0 0 500 240" style="enable-background:new 0 0 500 240;" xml:space="preserve">
<style type="text/css">
	.st0{fill:#FFFFFF;}
</style>
<g>
	<path class="st0" d="M69,108c0.8-4.3,1.4-8.6,1.9-13.4c0.5-4.8,1-9.3,1.6-13.8C73,76.3,73.5,72,74,68s1.1-7.4,1.8-10.4
		c0.9-3.5,2.3-6.1,4.1-7.9s3.8-2.6,5.6-2.6c1.9,0,3.6,0.9,5.1,2.8s2.4,4.6,2.5,8.4c0.1,3.9,0.1,8.6-0.4,14.1
		c-0.4,5.6-1,11.5-1.9,17.9c-0.9,6.3-1.9,12.8-3.3,19.1c-1.3,6.5-2.6,12.6-4.1,18.4c-1.5,5.8-3.1,10.9-4.9,15.5
		c-1.8,4.5-3.6,8.1-5.4,10.8c-2.5,3.5-5.4,5.8-8.5,6.8s-6.3,1-9.5-0.1c-3.3-1-6.3-3-9.3-5.9c-3-2.8-5.6-6.3-8-10.4
		c-1.6-2.8-3-6.1-4.4-10c-1.4-4-2.6-8.3-3.8-12.8c-1.1-4.5-2.1-9-2.9-13.8c-0.8-4.6-1.4-9.1-1.8-13.5c-0.4-4.4-0.5-8.4-0.5-12.1
		c0.1-3.8,0.4-7,1-9.6c0.5-2.6,1.6-4.9,3.1-6.9c1.6-2,3.6-3.6,5.9-4.9c2.3-1,4.5-1.1,6.6-0.4c2.1,0.8,3.5,2.4,4,4.9
		c0.6,2.5,1.1,5.5,1.8,8.9c0.5,3.4,1,7.1,1.6,10.9c0.5,3.9,1.1,7.8,1.8,11.9c0.6,4,1.4,8,2.3,11.9c1.3,6.1,2.5,10.8,3.9,14.1
		c1.4,3.4,2.8,5.1,4.1,5.4c1.4,0.3,2.8-1.3,4.3-4.5C66.2,120.7,67.6,115.3,69,108z"/>
	<path class="st0" d="M168.5,102c0.1,12.4-1.4,23.1-4.3,32c-2.9,9-6.6,16-11.1,21.1s-9.4,8.1-14.8,9.3c-5.4,1.1-10.4,0.1-15.3-2.6
		c-3.5-2-6.5-4.8-9-8.4c-2.5-3.6-4.6-7.8-6.4-12.3c-1.8-4.6-3-9.4-4-14.6c-1-5.1-1.5-10.4-1.8-15.8c-0.3-5.4-0.1-10.5,0.3-15.6
		s1.1-9.9,2.1-14.3c2.3-9.9,5.4-18.3,9.4-25.3c4-6.9,8.4-12.3,13.1-15.8c4.8-3.5,9.5-5.1,14.4-4.5c4.9,0.5,9.4,3.3,13.4,8.3
		s7.4,12.4,9.9,22.1C167,75.3,168.4,87.4,168.5,102z M122,106.8c0.3,4.3,0.9,8.5,1.9,12.6s2.4,7.6,4.1,10.3c1.8,2.6,3.9,4.1,6.3,4.5
		c2.5,0.4,5.1-1.1,8.1-4.5c2.5-2.9,4.4-7,5.8-12.3c1.4-5.3,2-10.6,2-16.3c0-5.6-0.6-10.9-2-15.9s-3.4-8.8-6.3-11.3
		c-3.1-2.8-5.9-3.3-8.4-1.6s-4.8,4.3-6.5,8c-1.8,3.8-3.1,8-4,12.9C122.3,98.1,121.9,102.6,122,106.8z"/>
	<path class="st0" d="M229.3,142.2c-2.4,1.8-4.8,3.9-7,6.1c-2.4,2.4-4.8,4-7.3,5.1c-3.5,1.6-6.8,2-9.9,1.5c-3.1-0.6-6.1-2-8.9-4.3
		c-2.8-2.3-5.3-5.3-7.5-9s-4.1-8-5.6-12.9c-1.9-6.3-3.3-12.5-4-19.1c-0.8-6.5-1.1-13.1-1.1-19.9s0.4-13.5,1-20.3
		c0.6-6.8,1.3-13.5,2-20c0.5-4,1.4-7.5,2.9-10.5s3.5-5,6.1-6.1c3.8-1.5,6.6-1.1,8.5,1c2,2.1,3.4,5.4,4.3,9.8
		c0.9,4.4,1.4,9.5,1.4,15.5c0,5.9,0,12-0.3,18.4c-0.1,6.4-0.3,12.5-0.3,18.4s0.4,11,1.1,15.1c1.1,6.4,2.9,9.9,5.1,10.5
		c2.3,0.6,4.6-1.5,7.3-6.4c1.9-3.5,3.6-8.4,5-14.4c1.5-6,2.8-12.5,3.9-19.4c1.1-6.9,2-13.5,2.6-20.1s1.3-12.3,1.8-16.9
		c0.5-6.6,2.1-11.1,4.6-13.5s5.8-3.8,9.6-4c3.6-0.4,6.5,1.4,8.5,5.3s3.3,8.5,3.8,13.8c0.4,3.9,0.5,9.3,0.5,16.3s-0.1,14.6-0.4,23.1
		s-0.6,17.4-1,26.6c-0.5,9.3-1,18.1-1.6,26.5s-1.3,16.1-2,23.1c-0.8,7-1.4,12.4-2,16c-1.6,9-4.1,16.1-7.6,21.4
		c-3.4,5.3-7.1,8.9-11.3,11c-4.1,2.1-8.3,2.9-12.6,2.4s-8-2-11.4-4.5c-3.3-2.4-5.8-5.5-7.6-9.3s-2.3-7.8-1.3-12
		c1.1-5.3,2.6-8.4,4.4-9.6c1.9-1.1,3.9-1.5,6.1-1s4.5,1,6.8,1.8s4.4,0.4,6.3-1.1c1.9-1.5,3.5-4.9,4.9-10
		C228.3,161.5,229.1,153.4,229.3,142.2z"/>
	<path class="st0" d="M308.8,153.2c-2.4,1.8-4.8,3.6-7.1,5.6c-2.4,2-4.9,3.8-7.4,5.1c-2.6,1.5-5.3,2.3-8,2.1c-2.6-0.1-5.3-0.8-7.9-2
		c-4.1-2.1-7.4-5.5-9.5-10.4c-2.3-4.8-3.6-10.3-4.1-16.4c-0.5-6.1-0.3-12.5,0.8-19.1c1-6.6,2.6-12.9,5-18.8
		c2.3-5.9,5.3-10.9,8.8-15.1c3.5-4.3,7.5-7.1,12.1-8.4c2-0.6,4.1-1.1,6.3-1.3s4.3-0.3,6.3-0.5c-0.5-4-1.5-6.5-3-7.5
		s-3.3-1.1-5.3-0.6c-2,0.6-4.3,1.5-6.5,2.9c-2.4,1.4-4.6,2.3-6.9,2.9c-2.3,0.5-4.3,0.3-6.3-0.9c-2-1.1-3.5-3.9-4.6-8.3
		c-1.3-4.4-1.5-8.4-0.8-12.1c0.8-3.8,2.1-7,4.1-9.8s4.5-5,7.4-6.9s6-3.1,9.3-3.8c3.3-0.6,6.4-0.8,9.5-0.3s5.9,1.6,8.3,3.4
		c5,3.5,8.8,8.1,11.1,13.8c2.4,5.8,4,11.9,5,18.8c0.9,6.9,1.4,13.9,1.5,21.4c0.1,7.4,0.3,14.5,0.5,21.3c0.1,3.1,0.4,7.1,0.9,11.8
		c0.5,4.6,0.9,9.3,1,13.9c0.1,4.6,0,9-0.4,13.1c-0.5,4.1-1.5,7.3-3.1,9.4c-1.5,2-3,3.3-4.4,3.8c-1.5,0.5-2.9,0.5-4.3-0.1
		c-1.4-0.5-2.8-1.5-4.1-2.8C311.5,156.2,310.1,154.9,308.8,153.2z M303.7,125.8c-0.1,0-0.1-0.5-0.1-1.6s0-2.5,0.1-4.3
		c0-1.8,0.1-3.5,0.1-5.4s0-3.5-0.1-4.8c-0.1-1.6-0.4-2.5-0.8-2.6s-0.6-0.3-0.8-0.3c-2.9,1-5.5,2.9-7.9,5.4c-2.4,2.6-4.3,5.4-5.8,8.4
		s-2.4,6-2.8,8.8c-0.4,2.8-0.1,4.6,1,5.6c1,1,3,1,5.8-0.3C295.2,133.6,299,130.6,303.7,125.8z"/>
	<path class="st0" d="M380.8,133.1c-2.6,0.9-5.4,1.9-8.1,3.1c-2.8,1.1-5.5,1.9-8.4,2c-5.3,0.4-10-1.3-13.9-5
		c-4-3.8-7.1-8.9-9.5-15.1c-2.4-6.3-3.8-13.4-4.3-21.1c-0.5-7.8,0.1-15.3,1.9-22.5c1.8-7.3,4.6-13.6,8.6-19.1s9.5-9.1,16.3-10.9
		c2.3-0.5,4.4-0.8,6.3-0.6s3.8,0.4,5.6,1c1.9,0.6,3.8,1.4,5.6,2.4c1.9,1,3.9,2.3,6,3.6c0.3,0,0.5,0,0.8,0c0.8-1.1,1.5-2.3,2.3-3.4
		s1.8-2,2.6-2.6c1-0.6,2-1,3.3-1.1c1.1,0,2.5,0.5,3.9,1.6c1.6,1.1,2.8,2.6,3.5,4.4c0.8,1.8,1.1,3.6,1.3,5.6c0.1,1.8,0.1,3.6,0.1,5.3
		c0,1.8-0.1,3.5-0.4,5.3c-1.4,10.6-2,21.5-1.9,32.3c0,10.8,0.5,21.6,1.3,32.6c0.5,5.6,0.8,11,0.8,16.4c-0.1,8.8-1.1,16-3.3,22.1
		c-2,6.1-4.8,11.1-8.1,15.1c-3.4,4-7.3,6.9-11.6,8.5c-4.4,1.6-9.1,2.3-13.9,1.6c-1.1-0.1-2.4-0.4-3.9-0.8c-1.5-0.4-3-0.9-4.6-1.6
		c-1.5-0.8-3-1.9-4.4-3.3s-2.5-3.1-3.4-5.3c-1.1-2.6-1.8-5.5-1.9-8.6s0.5-6.4,1.9-9.9c1-2.6,2.3-4.3,3.6-4.8c1.5-0.5,3-0.6,4.6-0.3
		c1.6,0.4,3.3,0.9,5,1.6s3.5,1,5.1,0.9c1.8-0.1,3.4-0.8,5-2.1c1.6-1.4,3.1-4,4.5-7.8c1.3-3.1,2-6.3,2.1-9.6
		C381.3,139.7,381.1,136.3,380.8,133.1z M381.5,76.9c-4-3-7.4-4.4-10.3-3.9c-2.9,0.4-5.3,1.9-7,4.4c-1.8,2.5-3,5.6-3.8,9.4
		s-0.9,7.4-0.6,10.8c0.4,3.4,1.3,6.3,2.6,8.5c1.5,2.3,3.4,3.3,5.8,2.8c1-0.1,2.1-0.8,3.4-2c1.3-1.3,2.5-2.6,3.8-4.1
		c1.3-1.6,2.3-3.3,3.1-4.9c0.9-1.8,1.4-3.1,1.6-4.5c0.5-2.6,0.8-5.4,0.8-8.1C381.3,82.4,381.4,79.7,381.5,76.9z"/>
	<path class="st0" d="M435.4,114.8c0.6,2.5,1.5,4.6,2.8,6.5s2.8,3.4,4.4,4.4c1.8,1,3.6,1.6,5.6,1.8c2,0.1,4.1-0.3,6.3-1.3
		c1.4-0.6,3-1.4,4.6-2.3c1.8-0.9,3.4-1.5,5-2c1.6-0.4,3.1-0.5,4.6-0.3c1.5,0.3,2.9,1.1,4,2.6c1.5,2,2,3.9,1.6,5.8
		c-0.4,1.9-1.3,3.8-2.9,5.8c-1.5,1.9-3.5,3.8-6,5.6c-2.4,1.8-5,3.5-7.9,4.9c-2.8,1.5-5.6,2.6-8.4,3.5c-2.9,0.9-5.4,1.3-7.6,1
		c-4.4-0.4-8.4-1.5-11.9-3.6s-6.5-5-9-8.6c-2.5-3.8-4.4-8.1-5.6-13c-1.3-5-1.9-10.5-1.9-16.5c0-8.1,0.6-15.9,1.9-23s3.4-13.3,6.4-18
		c3-4.9,6.9-8.1,11.8-9.9s10.8-1.5,17.8,0.6c5,1.5,9.3,4.3,12.6,7.9c3.5,3.6,6.1,7.5,8,11.5c1.9,4.1,2.9,8.1,3.1,12.3
		c0.1,4.1-0.6,8-2.4,11.6s-4.5,6.9-8.1,9.9c-3.8,2.9-8.5,4.9-14.5,5.8c-2.1,0.3-4.5,0.1-7.3-0.6
		C439.8,116.2,437.4,115.6,435.4,114.8z M438.8,93.6c2.5,1.1,5.1,1.8,7.8,2.3c2.6,0.5,5.3,0.4,7.8-0.3c1.4-0.4,2.4-1.3,3-2.6
		c0.6-1.4,0.8-2.9,0.6-4.4c-0.3-1.5-0.9-2.9-2.1-4.1c-1.1-1.3-2.9-1.8-5-1.5c-3.4,0.4-5.9,1.3-7.6,2.9
		C441.3,87.4,439.9,89.9,438.8,93.6z"/>
</g>
</svg>
