<?xml version="1.0" encoding="utf-8"?>
<!-- Generator: Adobe Illustrator 27.5.0, SVG Export Plug-In . SVG Version: 6.00 Build 0)  -->
<svg version="1.1" id="Layer_1" xmlns="http://www.w3.org/2000/svg" xmlns:xlink="http://www.w3.org/1999/xlink" x="0px" y="0px"
	 viewBox="0 0 24 24" style="enable-background:new 0 0 24 24;" xml:space="preserve">
<style type="text/css">
	.st0{fill:#FFFFFF;}
</style>
<path class="st0" d="M15,21.8L15,21.8L15,21.8c0,0-0.1,0-0.1,0c0,0-0.1,0-0.1,0L9,19.8l-5,1.7c-0.4,0.1-0.9,0.1-1.2-0.2
	c-0.4-0.3-0.6-0.7-0.6-1.1V5.4c0-0.6,0.4-1.1,0.9-1.3l5.6-1.9c0,0,0.1,0,0.1,0c0,0,0.1,0,0.1,0l0,0l0,0c0,0,0.1,0,0.1,0
	c0,0,0.1,0,0.1,0L15,4.2l5-1.7c0.4-0.1,0.9-0.1,1.2,0.2c0.4,0.3,0.6,0.7,0.6,1.1v14.7c0,0.6-0.4,1.1-0.9,1.3l-5.6,1.9
	c0,0-0.1,0-0.1,0C15.1,21.7,15,21.8,15,21.8z M15.8,5.5V20l4.5-1.5V4L15.8,5.5z M9.8,18.5l4.5,1.5V5.5L9.8,4V18.5z M3.8,5.5V20
	l4.5-1.5V4L3.8,5.5z"/>
</svg>
